<svg width="121" height="160" viewBox="0 0 121 160" fill="none" xmlns="http://www.w3.org/2000/svg">
<path fill-rule="evenodd" clip-rule="evenodd" d="M27.786 3.046C24.644 4.668 21.656 6.784 21.147 7.748C20 9.918 30.239 72.311 32.154 74.821C34.244 77.559 38.406 80.925 39.75 80.964C40.729 80.992 41 72.697 41 42.723C41 9.697 40.786 4.14 39.443 2.223C37.389 -0.710001 34.693 -0.52 27.786 3.046ZM51.511 2.342C50.185 4.366 50.012 10.101 50.238 44.592L50.5 84.5H60.5H70.5L70.762 47.207C70.935 22.58 70.668 9.248 69.975 7.952C68.774 5.709 58.061 0 55.052 0C53.949 0 52.356 1.054 51.511 2.342ZM88 11.645C84.975 12.45 81.938 13.845 81.25 14.745C80.31 15.977 80 24.384 80 48.691C80 84.502 79.841 83.77 86.27 77.526C90.35 73.563 89.941 75.115 96.441 39C101.987 8.185 101.912 7.944 88 11.645ZM1.674 27.138C0.292003 29.287 0.401002 30.854 2.877 44.5L5.6 59.5L12.147 59.792L18.694 60.084L15.999 43.994C14.516 35.144 12.898 27.498 12.402 27.003C11.906 26.508 9.631 25.804 7.347 25.439C3.695 24.855 3.01 25.061 1.674 27.138ZM111 25.893C108.643 26.548 108.347 27.446 105.825 41.544C102.173 61.961 101.839 60.151 109.2 59.798L115.401 59.5L118.123 44.5C120.543 31.163 120.685 29.251 119.399 27.25C117.93 24.963 115.668 24.598 111 25.893ZM2.944 71.844C1.474 73.035 0.691004 74.719 0.735004 76.594C0.773004 78.192 4.897 96.375 9.899 117C18.426 152.153 19.184 154.672 22.013 157.25L25.032 160H60.5H95.968L98.982 157.25C101.803 154.675 102.598 152.037 111.474 115.754C121.438 75.03 121.634 73.48 117.114 71.061C116.023 70.477 112.435 70 109.138 70C103.855 70 102.9 70.312 101.073 72.635C99.933 74.084 99 75.911 99 76.695C99 79.276 89.063 88.726 84.107 90.859C81.468 91.994 75.151 93.476 70.069 94.153C59.006 95.626 44.695 94.215 36.965 90.89C31.939 88.728 22 79.3 22 76.695C22 75.911 21.067 74.084 19.927 72.635C18.079 70.285 17.171 70 11.538 70C6.889 70 4.62 70.487 2.944 71.844Z" fill="#1E3050"/>
</svg>
