<svg xmlns="http://www.w3.org/2000/svg" viewBox="0 0 261.12 211.96"><defs><style>.cls-1,.cls-2{fill:#513884;}.cls-2{font-size:17.32px;font-family:Parkinsans-Light, Parkinsans;font-weight:300;}.cls-3{letter-spacing:0em;}.cls-4{letter-spacing:0em;}.cls-5{letter-spacing:0em;}.cls-6{letter-spacing:0em;}.cls-7{letter-spacing:0em;}.cls-8{letter-spacing:-0.02em;}.cls-9{letter-spacing:0em;}.cls-10{letter-spacing:0em;}.cls-11{letter-spacing:-0.01em;}.cls-12{letter-spacing:-0.01em;}.cls-13{letter-spacing:-0.01em;}.cls-14{letter-spacing:0em;}.cls-15{letter-spacing:0.02em;}.cls-16{letter-spacing:-0.03em;}.cls-17{letter-spacing:0em;}.cls-18{letter-spacing:0em;}</style></defs><g id="Camada_2" data-name="Camada 2"><g id="Camada_3" data-name="Camada 3"><g id="_02" data-name="02"><g id="HAMBURGUER"><path class="cls-1" d="M183.1,56.73c-15.59-45,46.66-30.37,74.12-56.73C278,37,209.09,38,203.49,36.27,202.73,42,208.12,53.94,192.37,66c-1.85,1.42,22.32,16.09,37.06,11.16,2.78-.93-2.78,14-21.31,15.81-14.87,1.49-22.24-8.37-16.68-15.81-.95-.23-2.65-1.33-3.24,0-1.39,3.3-4.65,14.25,9.73,20.42,3.07,1.32-11,4.43-16.3,0-8.46-7.08-7.34-16.26.55-24.18C185,70.68,183.78,61.84,183.1,56.73Z"/><path class="cls-1" d="M204.41,54.87c2.46-1.35,3.72-12.43,2.78-13.95.63,1.62,38.08-2.49,45.19-5.7a.73.73,0,0,1,1,.76C250.67,65.52,215.17,60.09,204.41,54.87Z"/><path class="cls-1" d="M196.28,66.18c.85-1.83,7.32-7.42,7.4-8.81,6.92,4.47,34.28,4.52,41.5,3.08C242.23,77.53,207.23,74.76,196.28,66.18Z"/><path class="cls-1" d="M78,56.73C93.61,11.77,31.37,26.36,3.9,0-16.91,37,52,38,57.64,36.27,58.39,42,53,53.94,68.75,66c1.86,1.42-22.32,16.09-37,11.16-2.78-.93,2.77,14,21.3,15.81,14.87,1.49,22.24-8.37,16.68-15.81.95-.23,2.65-1.33,3.24,0,1.4,3.3,4.65,14.25-9.72,20.42-3.08,1.32,11,4.43,16.29,0C88,90.57,86.84,81.39,79,73.47,76.17,70.68,77.34,61.84,78,56.73Z"/><path class="cls-1" d="M56.71,54.87C54.25,53.52,53,42.44,53.93,40.92c-.63,1.62-38.08-2.49-45.19-5.7a.73.73,0,0,0-1,.76C10.45,65.52,46,60.09,56.71,54.87Z"/><path class="cls-1" d="M64.84,66.18c-.85-1.83-7.32-7.42-7.39-8.81-6.93,4.47-34.29,4.52-41.5,3.08C18.89,77.53,53.89,74.76,64.84,66.18Z"/><path class="cls-1" d="M130.42,105.36c-22.54-.06-46.16-9.67-36.3-23,9.36,0,70.4-.51,74.51,1C174.11,100.81,145,105.94,130.42,105.36Z"/><path class="cls-1" d="M128.7,25.36c-15.12,0-40.41,11.72-35.93,29.75,2,2,71,3.61,74.56.9.53-.4,3.09-3,.9-9C161.94,29.86,138.07,24.71,128.7,25.36Z"/><path class="cls-1" d="M99,67.49h64.28a4.21,4.21,0,0,1,4.21,4.21v4.05a4.21,4.21,0,0,1-4.21,4.21H99.06a4.21,4.21,0,0,1-4.21-4.21V71.59a4.1,4.1,0,0,1,4.1-4.1Z"/><path class="cls-1" d="M167.25,63.65c-24-3.69-48,3.66-72,0a.45.45,0,0,1-.38-.43V62a.17.17,0,0,1,.2-.16c24,3.65,48-3.74,72-.14a.46.46,0,0,1,.38.45v1.37A.17.17,0,0,1,167.25,63.65Z"/></g><path class="cls-1" d="M.12,185.05,0,122.65l14.11-8.8v71.2Z"/><path class="cls-1" d="M19.59,154.59V145q0-12.72,2-16.28t8.66-9.66q6.64-6.11,9.88-6.1,5.58,0,12.77,6.46t9.12,14.19L50.8,141.47a31,31,0,0,0-5.16-10.12c-2.37-3.09-4-4.63-5-4.63-1.69,0-3.61,1.66-5.78,5q-1.3,1.94-1.31,13.33v9.56q0,11.7,1.31,13.33c2.17,3.32,4.09,5,5.78,5,.95,0,2.6-1.34,5-4A25.49,25.49,0,0,0,50.8,160l11.25,7.94q-1.92,7-9.12,12.86t-12.77,5.85q-3.24,0-9.88-6.1t-8.66-9.66Q19.6,167.3,19.59,154.59Z"/><path class="cls-1" d="M77.57,119.37c4.8-4.41,8.44-6.61,11-6.61s6.14,2.2,10.94,6.61,7.77,8,8.92,10.89q1.11,2.94,1.11,13.32v41.6h-14V169.93h-14v15.25h-14v-41.6q0-10.38,1.11-13.32Q70.38,126,77.57,119.37Zm4,24.21v14.14h14V143.58q0-8.34-.81-10.22a13.93,13.93,0,0,0-2.79-4c-1.32-1.39-2.45-2.08-3.39-2.08s-2.08.69-3.4,2.08a13.93,13.93,0,0,0-2.79,4Q81.52,135.24,81.52,143.58Z"/><path class="cls-1" d="M132.2,118.72q8.12-5.59,11.05-5.6t9.07,5.34q6.13,5.34,7.65,7.53a9.9,9.9,0,0,1,1.52,5.75q0,6.91-1.11,8.24a48.61,48.61,0,0,1-6.59,7.62q6.18,5.91,7.7,9.06.81,2.13,1.72,13t.92,15.92h-15.2q0-4.59-.82-14.35t-1.77-11.8a15.73,15.73,0,0,0-2.28-3.56h-9v29.71h-14V141q0-8.24-1.17-11.44a30.1,30.1,0,0,0-4.91-7.88l12.16-8.55A14.91,14.91,0,0,1,132.2,118.72ZM135,136.11v7.83h4c.95,0,2.17-.74,3.65-2.24a13.15,13.15,0,0,0,2.89-3.81,8.45,8.45,0,0,0,.66-3.3,7.1,7.1,0,0,0-.66-3.11,22.54,22.54,0,0,0-1.87-3.1c-.81-1.15-1.49-1.73-2-1.73a23.73,23.73,0,0,0-6.89,1.32Q135,131.95,135,136.11Z"/><path class="cls-1" d="M211.94,113.48v41.61q0,10.68-1.11,13.32-1.72,4.17-9,10.84T191,185.91q-3.65,0-10.89-6.66t-9-10.84Q170,165.77,170,155.09V140.34c0-5.49-.38-11.41-.38-11.41l14.61-8.08s-.25,8.71-.25,14.4v19.84q0,8.34.81,10.22a13.93,13.93,0,0,0,2.79,4c1.32,1.39,2.45,2.08,3.39,2.08s2.08-.69,3.4-2.08a13.88,13.88,0,0,0,2.78-4c.54-1.25.82-4.66.82-10.22V113.48Z"/><path class="cls-1" d="M258.77,154.92c.74,1.22,1.12,3.64,1.12,7.27a17.78,17.78,0,0,1-2.23,9.2q-2,3-8.62,8.19t-9.73,5.24q-5.56,0-12.76-5.85t-9.12-12.87l11.24-7.73a25.17,25.17,0,0,0,5.17,8.75q3.56,4,5,4a6.26,6.26,0,0,0,3.14-1,10.29,10.29,0,0,0,2.58-2q1.32-1.62,1.32-5.09c0-2.3-.54-3.73-1.62-4.27a42.07,42.07,0,0,0-7.85-4.58,92.6,92.6,0,0,1-10.8-6.15q-5-3.3-6.33-6.46a20.8,20.8,0,0,1-1.37-8.19,17,17,0,0,1,2.23-8.8q2-2.94,8.62-8.18t9.72-5.24q5.58,0,12.77,5.85c4.8,3.9,6.24,6,9.85,11.42l-14.44,3.62c-1.08-3.18-6.74-7.16-7.72-7.16a6.86,6.86,0,0,0-3.19.91,8.59,8.59,0,0,0-2.79,2.29c-.71.92-1.06,2.48-1.06,4.68s.67,3.68,2,4.43a46,46,0,0,0,7.4,4.47Q256.13,149.84,258.77,154.92Z"/><text class="cls-2" transform="translate(25.16 207.37)"><tspan class="cls-3">H</tspan><tspan class="cls-4" x="11.81" y="0">a</tspan><tspan class="cls-5" x="23.45" y="0">m</tspan><tspan class="cls-6" x="41.12" y="0">b</tspan><tspan class="cls-7" x="52.74" y="0">u</tspan><tspan class="cls-8" x="63.66" y="0">r</tspan><tspan class="cls-9" x="69.58" y="0">g</tspan><tspan class="cls-10" x="81.22" y="0">u</tspan><tspan class="cls-11" x="92.14" y="0">e</tspan><tspan class="cls-12" x="102.87" y="0">r</tspan><tspan class="cls-13" x="108.97" y="0">i</tspan><tspan x="112.99" y="0">a </tspan><tspan class="cls-14" x="129.42" y="0">a</tspan><tspan class="cls-15" x="141.06" y="0">r</tspan><tspan class="cls-16" x="147.7" y="0">t</tspan><tspan class="cls-17" x="153.35" y="0">e</tspan><tspan class="cls-12" x="164.22" y="0">s</tspan><tspan class="cls-4" x="172.83" y="0">a</tspan><tspan class="cls-18" x="184.47" y="0">n</tspan><tspan class="cls-14" x="195.38" y="0">a</tspan><tspan x="207.02" y="0">l</tspan></text></g></g></g></svg>